<svg xmlns="http://www.w3.org/2000/svg" viewBox="0 0 64 64" fill="none">
  <rect width="64" height="64" rx="14" fill="#000000"/>
  <g transform="translate(10.4 10.4) scale(1.8)"
     fill="none"
     stroke="white"
     stroke-linecap="round"
     stroke-linejoin="round"
     stroke-width="1.5">
    <path d="M2.25 6.75h19.5s1.5 0 1.5 1.5v12s0 1.5-1.5 1.5H2.25s-1.5 0-1.5-1.5v-12s0-1.5 1.5-1.5m14.25 0a4.5 4.5 0 1 0-9 0m-6.75 6h9m4.5 0h9"/>
    <path d="M9.75 13.75a2.25 2.25 0 1 0 4.5 0v-1.2a2.25 2.25 0 0 0-4.5 0z"/>
  </g>
</svg>
